# AST/ASF file generated using VICON BodyLanguage
# -----------------------------------------------
:version 1.10
:name VICON
:units
  mass 1.0
  length 0.45
  angle deg
:documentation
   .ast/.asf automatically generated from VICON data using
   VICON BodyBuilder and BodyLanguage model FoxedUp or BRILLIANT.MOD
:root
   order TX TY TZ RX RY RZ
   axis XYZ
   position 0 0 0  
   orientation 0 0 0 
:bonedata
  begin
     id 1 
     name lhipjoint
     direction 0.624716 -0.669793 0.401383 
     length 2.38238 
     axis 0 0 0  XYZ
  end
  begin
     id 2 
     name lfemur
     direction 0.34202 -0.939693 0  
     length 6.4574  
     axis 0 0 20  XYZ
    dof rx ry rz
    limits (-160.0 20.0)
           (-70.0 70.0)
           (-60.0 70.0)
  end
  begin
     id 3 
     name ltibia
     direction 0.34202 -0.939693 0   
     length 7.68739   
     axis 0 0 20   XYZ
    dof rx
    limits (-10.0 170.0)
  end
  begin
     id 4 
     name lfoot
     direction 0.0681309 -0.187188 0.979959   
     length 2.46615   
     axis -90 7.62852e-016 20   XYZ
    dof rx rz
    limits (-45.0 90.0)
           (-70.0 20.0)
  end
  begin
     id 5 
     name ltoes
     direction 1.53566e-011 -4.21819e-011 1   
     length 1.2376   
     axis -90 7.62852e-016 20   XYZ
    dof rx
    limits (-90.0 20.0)
  end
  begin
     id 6 
     name rhipjoint
     direction -0.644473 -0.655875 0.393043   
     length 2.43293  
     axis 0 0 0  XYZ 
  end
  begin
     id 7 
     name rfemur
     direction -0.34202 -0.939693 0   
     length 6.7025   
     axis 0 0 -20   XYZ
    dof rx ry rz
    limits (-160.0 20.0)
           (-70.0 70.0)
           (-70.0 60.0)
  end
  begin
     id 8 
     name rtibia
     direction -0.34202 -0.939693 0   
     length 7.80547   
     axis 0 0 -20   XYZ
    dof rx
    limits (-10.0 170.0)
 end
 begin
     id 9 
     name rfoot
     direction -0.0756734 -0.207911 0.975216   
     length 2.40315  
     axis -90 -7.62852e-016 -20   XYZ
    dof rx rz
    limits (-45.0 90.0)
           (-20.0 70.0)
  end
  begin
     id 10 
     name rtoes
     direction -1.5353e-011 -4.21879e-011 1   
     length 1.20477   
     axis -90 -7.62852e-016 -20   XYZ
    dof rx
    limits (-90.0 20.0)
  end
  begin
     id 11 
     name lowerback
     direction 0.0160353 0.987463 -0.157037   
     length 2.18572   
     axis 0 0 0   XYZ
    dof rx ry rz
    limits (-20.0 45.0)
           (-30.0 30.0)
           (-30.0 30.0)
  end
  begin
     id 12 
     name upperback
     direction -0.00499661 0.999756 0.0215076   
     length 2.18016   
     axis 0 0 0   XYZ
    dof rx ry rz
    limits (-20.0 45.0)
           (-30.0 30.0)
           (-30.0 30.0)
  end
  begin
     id 13 
     name thorax
     direction -0.00921346 0.995333 0.0960619   
     length 2.24923   
     axis 0 0 0   XYZ
    dof rx ry rz
    limits (-20.0 45.0)
           (-30.0 30.0)
           (-30.0 30.0)
  end
  begin
     id 14 
     name lowerneck
     direction 0.0274184 0.991181 0.12965   
     length 1.70911   
     axis 0 0 0   XYZ
    dof rx ry rz
    limits (-20.0 45.0)
           (-30.0 30.0)
           (-30.0 30.0)
  end
  begin
     id 15 
     name upperneck
     direction 0.0015627 0.999959 -0.00893559   
     length 1.69312   
     axis 0 0 0   XYZ
    dof rx ry rz
    limits (-20.0 45.0)
           (-30.0 30.0)
           (-30.0 30.0)
  end
  begin
     id 16
     name head
     direction -0.00230242 0.999856 -0.0168327  
     length 1.80241  
     axis 0 0 0   XYZ
    dof rx ry rz
    limits (-20.0 45.0)
           (-30.0 30.0)
           (-30.0 30.0)
  end
  begin
     id 17 
     name lclavicle
     direction 0.955523 0.290741 -0.0494489  
     length 3.84275  
     axis 0 0 0   XYZ
    dof ry rz
    limits (-20.0 10.0)
           (0.0 20.0)
  end
  begin
     id 18 
     name lhumerus
     direction 1 -4.48967e-011 -3.18382e-028   
     length 5.17714   
     axis 180 -30 -90   XYZ
    dof rx ry rz
    limits (-60.0 90.0)
           (-90.0 90.0)
           (-90.0 90.0)
  end
  begin
     id 19
     name lradius
     direction 1 -4.48968e-011 -2.22911e-027   
     length 3.43679   
     axis 180 -30 -90   XYZ
    dof rx
    limits (-10.0 170.0)
  end
  begin
     id 20
     name lwrist
     direction 1 -4.48951e-011 -6.32245e-027   
     length 1.7184   
     axis 3.57107e-015 90 90   XYZ
    dof ry
    limits (-180.0 0.0)
 end
  begin
     id 21 
     name lhand
     direction 1 -4.48924e-011 -1.26431e-026   
     length 0.573117   
     axis 8.06912e-015 90 90   XYZ
    dof rx rz
    limits (-90.0 90.0)
           (-45.0 45.0)
  end
  begin
     id 22 
     name lfingers
     direction 1 -4.49001e-011 -2.52965e-026   
     length 0.462062   
     axis 1.61381e-014 90 90   XYZ
    dof rx
    limits (0.0 90.0)
  end
  begin
     id 23
     name lthumb
     direction 0.707107 -6.35008e-011 0.707107   
     length 0.663431   
     axis -90 45 -1.62303e-014   XYZ
    dof rx rz
    limits (-45.0 45.0)
           (-45.0 45.0)
  end
  begin
     id 24 
     name rclavicle
     direction -0.963917 0.256881 -0.0698287   
     length 3.73057  
     axis 0 0 0   XYZ 
    dof ry rz
    limits (-10.0 20.0)
           (-20.0 0.0)
  end
  begin
     id 25 
     name rhumerus
     direction -1 -4.48962e-011 -2.73982e-027  
     length 5.23908   
     axis 180 30 90   XYZ
    dof rx ry rz
    limits (-90.0 60.0)
           (-90.0 90.0)
           (-90.0 90.0)
  end
  begin
     id 26 
     name rradius
     direction -1 -4.48968e-011 -4.33218e-027   
     length 3.46485   
     axis 180 30 90   XYZ
    dof rx
    limits (-10.0 170.0)
  end
  begin
     id 27 
     name rwrist
     direction -1 -4.48989e-011 -6.32372e-027   
     length 1.73243   
     axis 3.57107e-015 -90 -90   XYZ
    dof ry
    limits (-180.0 0.0)
  end
  begin
     id 28
     name rhand
     direction -1 -4.48948e-011 -1.26448e-026   
     length 0.608752   
     axis 8.06912e-015 -90 -90   XYZ
    dof rx rz
    limits (-90.0 90.0)
           (-45.0 45.0)
  end
  begin
     id 29
     name rfingers
     direction -1 -4.48962e-011 -2.52913e-026   
     length 0.490792   
     axis 1.61381e-014 -90 -90   XYZ
    dof rx
    limits (0.0 90.0)
  end
  begin
     id 30
     name rthumb
     direction -0.707107 -6.34878e-011 0.707107   
     length 0.704682   
     axis -90 -45 1.62303e-014   XYZ
    dof rx rz
    limits (-45.0 45.0)
           (-45.0 45.0)
  end
:hierarchy
  begin
    root lhipjoint rhipjoint lowerback
    lhipjoint lfemur
    lfemur ltibia
    ltibia lfoot
    lfoot ltoes
    rhipjoint rfemur
    rfemur rtibia
    rtibia rfoot
    rfoot rtoes
    lowerback upperback
    upperback thorax
    thorax lowerneck lclavicle rclavicle
    lowerneck upperneck
    upperneck head
    lclavicle lhumerus
    lhumerus lradius
    lradius lwrist
    lwrist lhand lthumb
    lhand lfingers
    rclavicle rhumerus
    rhumerus rradius
    rradius rwrist
    rwrist rhand rthumb
    rhand rfingers
  end

#!OML:ASF G:\JayActor3\Patient Classification 1\Patient 1\Session 6\male.ASF
:FULLY-SPECIFIED
:DEGREES
240
root 49.145 15.8993 16.7028 190.241 -36.7084 -183.95
lowerback -6.82811 -0.86348 -7.51204
upperback 2.07046 -0.436427 -2.3721
thorax 6.0585 -0.492917 1.67057
lowerneck -7.70492 0.66397 2.89509
upperneck 13.9525 0.254507 0.119314
head 5.48106 0.184943 -0.430297
rclavicle -3.26007e-014 3.33958e-014
rhumerus -31.1644 -12.0375 -83.1006
rradius 31.0075
rwrist 1.43771
rhand -18.9207 -7.8561
rfingers 7.12502
rthumb 7.38172 -37.7073
lclavicle -3.26007e-014 3.33958e-014
lhumerus -24.6567 5.74124 84.9454
lradius 23.3525
lwrist 15.0415
lhand -17.8577 13.8601
lfingers 7.12502
lthumb 8.40766 43.6728
rfemur -19.1943 4.93085 12.8079
rtibia 40.8347
rfoot -28.5415 -3.89939
rtoes 10.9029
lfemur -5.41609 9.6804 -26.2971
ltibia 19.306
lfoot -21.4341 -1.6884
ltoes 15.7755
241
root 49.1237 15.8959 16.6891 190.313 -36.6142 -183.928
lowerback -6.83994 -0.877838 -7.56022
upperback 2.03378 -0.452654 -2.38081
thorax 6.0283 -0.501156 1.68663
lowerneck -7.68451 0.684121 2.9186
upperneck 13.9176 0.285996 0.0838826
head 5.4672 0.199115 -0.442994
rclavicle 1.30204e-014 -4.05521e-014
rhumerus -31.2012 -12.0689 -83.077
rradius 30.9976
rwrist 1.4467
rhand -18.9258 -7.80573
rfingers 7.12502
rthumb 7.37676 -37.6571
lclavicle 1.30204e-014 -4.05521e-014
lhumerus -24.6499 5.99859 84.8625
lradius 23.0607
lwrist 14.8287
lhand -17.7854 13.9236
lfingers 7.12502
lthumb 8.47742 43.7335
rfemur -19.225 4.93596 12.7692
rtibia 40.8602
rfoot -28.567 -3.6965
rtoes 11.1456
lfemur -5.3856 9.69687 -26.3304
ltibia 19.2607
lfoot -21.521 -1.66834
ltoes 15.8011
242
root 49.1019 15.8925 16.6753 190.381 -36.5221 -183.906
lowerback -6.84561 -0.891808 -7.60821
upperback 1.9978 -0.469016 -2.38899
thorax 5.99536 -0.509381 1.70321
lowerneck -7.66459 0.708098 2.93351
upperneck 13.8848 0.321619 0.0621082
head 5.45412 0.215771 -0.449736
rclavicle 4.9895e-014 1.11319e-014
rhumerus -31.2423 -12.0895 -83.0539
rradius 30.9941
rwrist 1.43864
rhand -18.9339 -7.78213
rfingers 7.12502
rthumb 7.36891 -37.6338
lclavicle 4.9895e-014 1.11319e-014
lhumerus -24.6346 6.25101 84.7826
lradius 22.7605
lwrist 14.6267
lhand -17.7145 13.9629
lfingers 7.12502
lthumb 8.54584 43.77
rfemur -19.2501 4.93852 12.7286
rtibia 40.8874
rfoot -28.5893 -3.49645
rtoes 11.3521
lfemur -5.35027 9.71277 -26.3644
ltibia 19.2154
lfoot -21.6091 -1.6499
ltoes 15.8445
243
root 49.0795 15.8888 16.6616 190.443 -36.4281 -183.89
lowerback -6.83662 -0.905425 -7.66427
upperback 1.96291 -0.485782 -2.39467
thorax 5.95538 -0.517944 1.72703
lowerneck -7.63883 0.734457 2.93596
upperneck 13.8563 0.361271 0.0448376
head 5.44142 0.233959 -0.452782
rclavicle -4.48259e-014 8.0309e-014
rhumerus -31.2837 -12.1073 -83.023
rradius 30.9892
rwrist 1.4315
rhand -18.9426 -7.76869
rfingers 7.12502
rthumb 7.36054 -37.6207
lclavicle -4.48259e-014 8.0309e-014
lhumerus -24.6243 6.5029 84.7104
lradius 22.4685
lwrist 14.441
lhand -17.6423 13.9917
lfingers 7.12502
lthumb 8.61551 43.7959
rfemur -19.2647 4.93814 12.6794
rtibia 40.9172
rfoot -28.5739 -3.50522
rtoes 10.8045
lfemur -5.30116 9.72001 -26.4056
ltibia 19.169
lfoot -21.6988 -1.62431
ltoes 15.911
244
root 49.0565 15.8852 16.6478 190.501 -36.3341 -183.882
lowerback -6.81828 -0.919355 -7.72649
upperback 1.9298 -0.503418 -2.39931
thorax 5.91216 -0.52711 1.75536
lowerneck -7.60037 0.762346 2.9246
upperneck 13.8236 0.404159 0.0342777
head 5.42523 0.253367 -0.45128
rclavicle 4.11484e-014 1.59028e-015
rhumerus -31.3272 -12.1192 -82.9861
rradius 30.9864
rwrist 1.42011
rhand -18.9489 -7.77386
rfingers 7.12502
rthumb 7.35445 -37.626
lclavicle 4.11484e-014 1.59028e-015
lhumerus -24.623 6.75846 84.6455
lradius 22.1848
lwrist 14.2501
lhand -17.5707 13.9853
lfingers 7.12502
lthumb 8.68462 43.7867
rfemur -19.2714 4.92726 12.6214
rtibia 40.9497
rfoot -28.522 -3.70458
rtoes 9.5613
lfemur -5.2411 9.72417 -26.454
ltibia 19.1212
lfoot -21.7849 -1.59779
ltoes 15.9859
245
root 49.033 15.8818 16.6338 190.562 -36.2395 -183.88
lowerback -6.80214 -0.933157 -7.79113
upperback 1.89866 -0.520408 -2.40681
thorax 5.87229 -0.536187 1.78205
lowerneck -7.55771 0.788494 2.9137
upperneck 13.7945 0.44504 0.0194826
head 5.40943 0.271462 -0.451357
rclavicle -1.51076e-014 2.46493e-014
rhumerus -31.365 -12.1468 -82.946
rradius 30.9764
rwrist 1.42016
rhand -18.9523 -7.77473
rfingers 7.12502
rthumb 7.35122 -37.627
lclavicle -1.51076e-014 2.46493e-014
lhumerus -24.6229 6.9878 84.5861
lradius 21.9138
lwrist 14.0886
lhand -17.5445 13.9421
lfingers 7.12502
lthumb 8.70993 43.7424
rfemur -19.2805 4.90479 12.5566
rtibia 40.985
rfoot -28.4337 -4.07089
rtoes 7.69096
lfemur -5.17962 9.72439 -26.5085
ltibia 19.0718
lfoot -21.8688 -1.57103
ltoes 16.0646
246
root 49.0087 15.8784 16.6196 190.62 -36.1399 -183.883
lowerback -6.78178 -0.944637 -7.85426
upperback 1.87102 -0.534732 -2.42006
thorax 5.83342 -0.544008 1.80218
lowerneck -7.50953 0.809898 2.91149
upperneck 13.7697 0.479577 -0.00557174
head 5.39401 0.286105 -0.456544
rclavicle 1.34378e-013 -1.03368e-014
rhumerus -31.3981 -12.1867 -82.9097
rradius 30.9607
rwrist 1.42838
rhand -18.9485 -7.76434
rfingers 7.12502
rthumb 7.35487 -37.6165
lclavicle 1.34378e-013 -1.03368e-014
lhumerus -24.6264 7.21023 84.5234
lradius 21.6639
lwrist 13.938
lhand -17.5118 13.9083
lfingers 7.12502
lthumb 8.74146 43.7073
rfemur -19.2846 4.87306 12.4854
rtibia 41.0233
rfoot -28.3231 -4.49416
rtoes 5.55738
lfemur -5.10868 9.7141 -26.5686
ltibia 19.0226
lfoot -21.9518 -1.53173
ltoes 16.1313
247
root 48.9835 15.875 16.605 190.675 -36.0379 -183.883
lowerback -6.76566 -0.956682 -7.91357
upperback 1.84582 -0.549589 -2.43561
thorax 5.79956 -0.552143 1.81761
lowerneck -7.46155 0.829982 2.91254
upperneck 13.7546 0.511933 -0.0349884
head 5.38162 0.299465 -0.463813
rclavicle -5.03919e-014 3.73715e-014
rhumerus -31.427 -12.2204 -82.8808
rradius 30.9427
rwrist 1.43687
rhand -18.947 -7.7686
rfingers 7.12502
rthumb 7.35631 -37.6207
lclavicle -5.03919e-014 3.73715e-014
lhumerus -24.6404 7.426 84.4589
lradius 21.441
lwrist 13.8009
lhand -17.4863 13.8951
lfingers 7.12502
lthumb 8.7661 43.6931
rfemur -19.2893 4.82757 12.4145
rtibia 41.0642
rfoot -28.213 -4.83999
rtoes 3.64046
lfemur -5.0351 9.70308 -26.6276
ltibia 18.9751
lfoot -22.0299 -1.49156
ltoes 16.18
248
root 48.958 15.8718 16.5901 190.734 -35.9397 -183.878
lowerback -6.75519 -0.971531 -7.96977
upperback 1.82028 -0.567911 -2.45164
thorax 5.76885 -0.561931 1.83032
lowerneck -7.4314 0.853572 2.91506
upperneck 13.764 0.546695 -0.0602745
head 5.37997 0.31431 -0.469881
rclavicle -7.04692e-014 4.92986e-014
rhumerus -31.4489 -12.255 -82.8575
rradius 30.9183
rwrist 1.45206
rhand -18.946 -7.76792
rfingers 7.12502
rthumb 7.35728 -37.62
lclavicle -7.04692e-014 4.92986e-014
lhumerus -24.6521 7.63525 84.3926
lradius 21.2332
lwrist 13.6721
lhand -17.4717 13.87
lfingers 7.12502
lthumb 8.78021 43.6673
rfemur -19.3023 4.77075 12.3482
rtibia 41.1074
rfoot -28.1274 -5.0189
rtoes 2.29097
lfemur -4.96911 9.6964 -26.6818
ltibia 18.9313
lfoot -22.1021 -1.46008
ltoes 16.2018
249
root 48.932 15.8688 16.5746 190.796 -35.8466 -183.868
lowerback -6.74986 -0.98978 -8.02565
upperback 1.79267 -0.590426 -2.46677
thorax 5.73931 -0.573734 1.84328
lowerneck -7.41093 0.878645 2.91708
upperneck 13.7993 0.581629 -0.0832846
head 5.38804 0.32919 -0.475179
rclavicle -3.00165e-014 4.29375e-014
rhumerus -31.4699 -12.2875 -82.8374
rradius 30.8898
rwrist 1.47681
rhand -18.9449 -7.76359
rfingers 7.12502
rthumb 7.35835 -37.6156
lclavicle -3.00165e-014 4.29375e-014
lhumerus -24.6702 7.83498 84.3252
lradius 21.0499
lwrist 13.5536
lhand -17.4264 13.8895
lfingers 7.12502
lthumb 8.82386 43.685
rfemur -19.3175 4.70771 12.2853
rtibia 41.1521
rfoot -28.0825 -5.00064
rtoes 1.6258
lfemur -4.9105 9.70056 -26.7295
ltibia 18.8916
lfoot -22.1632 -1.44318
ltoes 16.1969
250
root 48.9057 15.8663 16.5583 190.873 -35.763 -183.852
lowerback -6.76436 -1.01086 -8.07952
upperback 1.76078 -0.615022 -2.48125
thorax 5.71675 -0.586566 1.85532
lowerneck -7.39604 0.900609 2.92292
upperneck 13.8578 0.610976 -0.109734
head 5.40425 0.341099 -0.482595
rclavicle 4.7112e-014 1.11319e-014
rhumerus -31.4911 -12.321 -82.8208
rradius 30.8608
rwrist 1.50095
rhand -18.9499 -7.77666
rfingers 7.12502
rthumb 7.35348 -37.6289
lclavicle 4.7112e-014 1.11319e-014
lhumerus -24.6919 8.01701 84.2606
lradius 20.8816
lwrist 13.4281
lhand -17.4002 13.8801
lfingers 7.12502
lthumb 8.84913 43.6745
rfemur -19.3464 4.63374 12.2285
rtibia 41.1966
rfoot -28.0798 -4.76207
rtoes 1.76023
lfemur -4.87271 9.72638 -26.7688
ltibia 18.857
lfoot -22.2094 -1.45619
ltoes 16.1775
